<?xml version="1.0" standalone="no"?>
<!DOCTYPE svg PUBLIC "-//W3C//DTD SVG 20010904//EN"
 "http://www.w3.org/TR/2001/REC-SVG-20010904/DTD/svg10.dtd">
<svg version="1.0" xmlns="http://www.w3.org/2000/svg"
 width="1000.000000pt" height="1000.000000pt" viewBox="0 0 1000.000000 1000.000000"
 preserveAspectRatio="xMidYMid meet">

<g transform="translate(0.000000,1000.000000) scale(0.100000,-0.100000)"
fill="#000000" stroke="none">
<path d="M6025 6760 c-33 -5 -94 -17 -135 -28 -252 -66 -277 -76 -407 -164
-190 -127 -438 -367 -604 -580 -98 -127 -229 -325 -265 -402 -18 -36 -18 -36
-83 -36 -86 0 -188 -17 -221 -37 -28 -16 -107 -133 -90 -133 13 0 13 -87 0
-95 -17 -11 -11 -20 23 -33 l32 -13 -30 -13 c-43 -19 -60 -43 -79 -108 -32
-113 -15 -151 85 -183 84 -27 99 -40 99 -83 0 -20 -7 -66 -16 -102 -18 -75
-21 -178 -6 -206 5 -10 10 -30 10 -44 1 -75 96 -409 142 -500 33 -63 150 -214
221 -282 201 -195 581 -293 904 -235 430 79 746 302 1031 729 51 76 74 120 74
140 0 20 -16 53 -46 95 l-47 66 -34 -54 c-37 -60 -53 -71 -53 -39 0 35 -44 70
-89 70 -31 0 -43 -5 -59 -27 l-20 -28 -7 27 c-10 40 -48 70 -97 75 -42 4 -43
4 -72 -44 -174 -288 -350 -406 -628 -422 -65 -3 -118 -3 -118 0 0 4 -28 16
-62 29 -139 49 -222 128 -300 285 -96 192 -85 176 -114 164 -32 -11 -30 -13
-38 33 l-7 37 47 3 47 3 -2 76 c-1 42 1 88 5 104 l7 28 126 -7 c137 -7 757 18
843 34 28 6 109 10 180 10 l129 0 -33 45 c-18 25 -37 52 -43 60 -6 10 -3 28
13 61 13 25 25 66 29 90 3 24 9 44 13 44 5 0 13 24 18 53 6 28 16 73 23 98 16
62 -1 97 -56 117 -33 12 -57 12 -145 2 -117 -13 -267 -5 -573 30 -95 11 -188
20 -207 20 -65 0 -64 9 7 115 44 67 106 140 187 220 141 140 229 208 343 267
80 40 85 41 185 42 88 1 111 -2 156 -23 28 -13 52 -28 52 -33 0 -5 13 -20 29
-34 16 -13 53 -56 82 -95 57 -78 59 -77 79 9 12 50 14 54 39 49 14 -2 33 -7
42 -11 12 -5 18 0 22 24 5 23 15 35 40 45 18 7 40 22 49 32 13 14 28 17 75 15
57 -4 59 -5 93 -52 19 -27 38 -46 41 -42 4 4 10 68 14 142 l7 135 -32 60 c-76
143 -181 263 -281 323 -43 26 -155 56 -284 77 -97 16 -165 17 -260 5z"/>
</g>
</svg>
